# xmcd
#
# Track frame offsets:
#	150
#	13409
#	30185
#	50337
#	65873
#	83072
#	99009
#	117658
#	132616
#	151505
#	165310
#	182877
#
# Disc length: 2678 seconds
# Revision: 0
# Processed by: cddbd v1.5.2PL0 Copyright (c) Steve Scherf et al.
# Submitted via: dBpowerAMP V12.0
#
DISCID=930a740c
DTITLE=Barwick and Siegfried - Stones and Gravel
DYEAR=2018
DGENRE=Americana
TTITLE0=Stones And Gravel
TTITLE1=Anniversary Yodel
TTITLE2=Kern River
TTITLE3=That Gravel Road
TTITLE4=What Was I Supposed To Do
TTITLE5=Goin' Down To Tampa
TTITLE6=Hello, My Name Is Coal
TTITLE7=I Live In The Country
TTITLE8=Lowlands
TTITLE9=Deep River
TTITLE10=Shenandoah Wind
TTITLE11=Train To Glory
EXTD=
EXTT0=
EXTT1=
EXTT2=
EXTT3=
EXTT4=
EXTT5=
EXTT6=
EXTT7=
EXTT8=
EXTT9=
EXTT10=
EXTT11=
PLAYORDER=
